<?xml version="1.0" encoding="UTF-8" standalone="no"?>
<!DOCTYPE svg PUBLIC "-//W3C//DTD SVG 1.1//EN" "http://www.w3.org/Graphics/SVG/1.1/DTD/svg11.dtd">
<svg width="100%" height="100%" viewBox="0 0 1024 1024" version="1.1" xmlns="http://www.w3.org/2000/svg" xmlns:xlink="http://www.w3.org/1999/xlink" xml:space="preserve" xmlns:serif="http://www.serif.com/" style="fill-rule:evenodd;clip-rule:evenodd;stroke-linejoin:round;stroke-miterlimit:2;">
    <rect id="Brain-Grey" serif:id="Brain Grey" x="0" y="0" width="1024" height="1024" style="fill:none;"/>
    <clipPath id="_clip1">
        <rect id="Brain-Grey1" serif:id="Brain Grey" x="0" y="0" width="1024" height="1024"/>
    </clipPath>
    <g clip-path="url(#_clip1)">
        <g transform="matrix(1.28,0,0,1.28,-1.13687e-13,-1.13687e-13)">
            <path d="M758.531,386.177C758.531,356.674 746.747,328.715 725.918,308.154C729.216,297.6 730.886,286.683 730.886,275.594C730.886,222.248 692.61,177.695 642.084,167.898C645.946,158.272 647.948,147.953 647.948,137.365C647.948,103.573 627.416,74.493 598.175,61.925C549.458,23.124 496.176,0 455.292,0C432.565,0 412.411,11.176 400,28.309C387.589,11.176 367.435,0 344.708,0C303.824,0 250.542,23.124 201.825,61.925C172.584,74.493 152.052,103.573 152.052,137.365C152.052,147.953 154.054,158.272 157.916,167.898C107.39,177.695 69.114,222.248 69.114,275.594C69.114,286.683 70.782,297.598 74.082,308.154C53.253,328.715 41.469,356.674 41.469,386.177C41.469,409.241 48.638,430.654 60.843,448.337C48.159,466.673 41.469,488.062 41.469,510.583C41.469,550.476 63.217,587.027 97.652,606.3C97.059,611.228 96.76,616.2 96.76,621.166C96.76,674.979 131.862,722.556 182.79,738.77C204.943,776.683 245.296,800 289.417,800C337.788,800 379.73,772.041 400,731.449C420.27,772.041 462.212,800 510.583,800C554.704,800 595.057,776.683 617.21,738.77C668.138,722.554 703.24,674.977 703.24,621.166C703.24,616.2 702.941,611.228 702.348,606.3C736.783,587.027 758.531,550.476 758.531,510.583C758.531,488.062 751.841,466.673 739.157,448.337C751.362,430.654 758.531,409.241 758.531,386.177ZM289.417,774.082C253.082,774.082 219.972,754.049 203.008,721.804C201.327,718.609 198.393,716.261 194.908,715.323C152.38,703.877 122.678,665.159 122.678,621.166C122.678,614.583 123.342,607.99 124.65,601.565C125.863,595.61 122.771,589.609 117.216,587.138C86.946,573.681 67.387,543.63 67.387,510.583C67.387,495.552 71.285,481.185 78.723,468.46C98.068,485.515 123.432,495.896 151.188,495.896C158.345,495.896 164.147,490.096 164.147,482.937C164.147,475.779 158.345,469.978 151.188,469.978C104.98,469.978 67.387,432.385 67.387,386.177C67.387,361.303 78.362,337.859 97.5,321.864C101.819,318.253 103.314,312.266 101.197,307.05C97.106,296.966 95.032,286.383 95.032,275.594C95.032,229.386 132.625,191.793 178.834,191.793C225.042,191.793 262.635,229.386 262.635,275.594C262.635,282.752 268.437,288.553 275.594,288.553C282.751,288.553 288.553,282.752 288.553,275.594C288.553,217.465 243.107,169.775 185.882,166.125C180.695,157.455 177.97,147.596 177.97,137.365C177.97,114.265 191.993,94.384 211.971,85.773C212.743,85.543 213.5,85.242 214.231,84.862C220.42,82.509 227.122,81.21 234.125,81.21C255.822,81.21 275.191,93.341 284.676,112.873C287.803,119.312 295.558,121.997 301.994,118.868C308.432,115.743 311.117,107.99 307.99,101.552C297.163,79.257 276.672,63.233 253.075,57.557C286.149,37.375 318.711,25.918 344.708,25.918C368.05,25.918 387.041,44.907 387.041,68.251L387.041,235.941C375.397,226.704 360.691,221.166 344.708,221.166C337.552,221.166 331.749,226.967 331.749,234.125C331.749,241.284 337.552,247.084 344.708,247.084C368.05,247.084 387.041,266.073 387.041,289.417L387.041,600.914C370.929,580.126 348.214,564.437 321.495,557.258C314.585,555.407 307.475,559.499 305.617,566.41C303.76,573.324 307.858,580.432 314.77,582.288C357.322,593.721 387.041,632.444 387.041,676.458C387.041,730.288 343.247,774.082 289.417,774.082ZM682.784,587.14C677.229,589.61 674.137,595.61 675.35,601.567C676.658,607.991 677.322,614.585 677.322,621.168C677.322,665.161 647.62,703.879 605.092,715.324C601.607,716.263 598.671,718.611 596.992,721.806C580.028,754.049 546.918,774.082 510.583,774.082C456.753,774.082 412.959,730.288 412.959,676.458C412.959,672.814 412.79,669.201 412.473,665.622C412.781,664.515 412.959,663.352 412.959,662.146L412.959,234.125C412.959,210.782 431.95,191.793 455.292,191.793C462.448,191.793 468.251,185.992 468.251,178.834C468.251,171.675 462.448,165.875 455.292,165.875C439.309,165.875 424.603,171.413 412.959,180.65L412.959,68.251C412.959,44.907 431.95,25.918 455.292,25.918C481.289,25.918 513.851,37.375 546.925,57.557C523.328,63.231 502.837,79.257 492.01,101.552C488.883,107.991 491.568,115.744 498.006,118.868C504.444,121.996 512.197,119.312 515.324,112.873C524.809,93.341 544.178,81.21 565.875,81.21C572.878,81.21 579.582,82.509 585.769,84.862C586.498,85.242 587.255,85.541 588.024,85.771C608.005,94.383 622.03,114.263 622.03,137.365C622.03,147.596 619.305,157.455 614.118,166.125C556.893,169.775 511.447,217.465 511.447,275.594C511.447,282.752 517.249,288.553 524.406,288.553C531.563,288.553 537.365,282.752 537.365,275.594C537.365,229.386 574.958,191.793 621.166,191.793C667.375,191.793 704.968,229.386 704.968,275.594C704.968,286.383 702.894,296.966 698.804,307.05C696.688,312.268 698.182,318.253 702.502,321.864C721.638,337.859 732.613,361.303 732.613,386.177C732.613,432.385 695.02,469.978 648.812,469.978C641.655,469.978 635.853,475.779 635.853,482.937C635.853,490.096 641.655,495.896 648.812,495.896C676.568,495.896 701.932,485.515 721.277,468.46C728.717,481.185 732.613,495.552 732.613,510.583C732.613,543.63 713.054,573.681 682.784,587.14Z" style="fill:rgb(201,201,201);fill-rule:nonzero;"/>
            <path d="M261.33,384.356C255.817,409.571 233.324,428.51 206.479,428.51C199.323,428.51 193.521,434.31 193.521,441.469C193.521,448.627 199.323,454.428 206.479,454.428C247.558,454.428 281.679,424.092 287.63,384.646C312.781,381.927 335.998,370.72 353.971,352.375C358.981,347.262 358.896,339.057 353.783,334.049C348.672,329.044 340.467,329.123 335.457,334.236C319.563,350.46 298.303,359.395 275.594,359.395C229.386,359.395 191.793,321.802 191.793,275.594C191.793,268.435 185.99,262.635 178.834,262.635C171.677,262.635 165.875,268.435 165.875,275.594C165.875,331.257 207.549,377.337 261.33,384.356Z" style="fill:rgb(201,201,201);fill-rule:nonzero;"/>
            <path d="M316.199,496.76C316.199,489.602 310.397,483.801 303.24,483.801C242.74,483.801 193.521,533.021 193.521,593.521C193.521,594.146 193.543,594.773 193.553,595.4C188.734,594.751 183.827,594.384 178.834,594.384C171.677,594.384 165.875,600.185 165.875,607.343C165.875,614.502 171.677,620.302 178.834,620.302C225.042,620.302 262.635,657.895 262.635,704.104C262.635,711.262 268.437,717.063 275.594,717.063C282.751,717.063 288.553,711.262 288.553,704.104C288.553,658.124 260.109,618.683 219.903,602.39C219.596,599.454 219.438,596.484 219.438,593.521C219.438,547.312 257.032,509.719 303.24,509.719C310.397,509.719 316.199,503.919 316.199,496.76Z" style="fill:rgb(201,201,201);fill-rule:nonzero;"/>
            <path d="M621.166,414.687C594.322,414.687 571.829,395.748 566.315,370.533C620.097,363.514 661.771,317.434 661.771,261.771C661.771,254.613 655.969,248.812 648.812,248.812C641.655,248.812 635.853,254.613 635.853,261.771C635.853,307.979 598.26,345.572 552.052,345.572C529.343,345.572 508.083,336.638 492.188,320.413C487.181,315.302 478.975,315.217 473.863,320.226C468.75,325.235 468.665,333.439 473.674,338.552C491.648,356.897 514.865,368.104 540.016,370.823C545.966,410.269 580.088,440.605 621.166,440.605C628.323,440.605 634.125,434.804 634.125,427.646C634.125,420.487 628.323,414.687 621.166,414.687Z" style="fill:rgb(201,201,201);fill-rule:nonzero;"/>
            <path d="M579.698,566.739C574.704,566.739 569.797,567.105 564.978,567.755C564.988,567.127 565.011,566.5 565.011,565.875C565.011,505.375 515.791,456.156 455.292,456.156C448.135,456.156 442.333,461.956 442.333,469.114C442.333,476.273 448.135,482.073 455.292,482.073C501.5,482.073 539.093,519.667 539.093,565.875C539.093,568.836 538.936,571.808 538.628,574.744C498.422,591.038 469.978,630.478 469.978,676.458C469.978,683.616 475.781,689.417 482.937,689.417C490.094,689.417 495.896,683.616 495.896,676.458C495.896,630.25 533.489,592.657 579.698,592.657C586.854,592.657 592.657,586.856 592.657,579.698C592.657,572.539 586.854,566.739 579.698,566.739Z" style="fill:rgb(201,201,201);fill-rule:nonzero;"/>
        </g>
    </g>
</svg>
